<?xml version="1.0" encoding="utf-8"?>
<!-- Generator: Adobe Illustrator 16.0.0, SVG Export Plug-In . SVG Version: 6.00 Build 0)  -->
<!DOCTYPE svg PUBLIC "-//W3C//DTD SVG 1.1//EN" "http://www.w3.org/Graphics/SVG/1.1/DTD/svg11.dtd">
<svg version="1.1" id="Layer_1" xmlns="http://www.w3.org/2000/svg" xmlns:xlink="http://www.w3.org/1999/xlink" x="0px" y="0px"
	 width="800px" height="800px" viewBox="0 0 800 800" enable-background="new 0 0 800 800" xml:space="preserve">
<g>
	<g>
		<path fill="#FFFFFF" d="M-1631.313,784.823l-143.938-143.944l143.938-143.945l143.945,143.945L-1631.313,784.823z
			 M-1756.448,640.879l125.135,125.142l125.142-125.142l-125.142-125.143L-1756.448,640.879z"/>
	</g>
	
		<rect x="-1680.771" y="591.419" transform="matrix(-0.7071 -0.7071 0.7071 -0.7071 -3237.9937 -59.463)" fill="#202020" width="98.919" height="98.92"/>
	<g>
		<path fill="#202020" d="M-1756.239,757.989l-370.206-370.206l370.206-370.212l370.211,370.212L-1756.239,757.989z
			 M-2107.642,387.784l351.403,351.403l351.408-351.403l-351.408-351.409L-2107.642,387.784z"/>
	</g>
</g>
<g>
	<g>
		<path fill="#434343" d="M-838.64,754.584c13.753,4.752,27.772,8.679,41.987,11.813l429.899-229.363
			c5.312-13.553,9.857-27.385,13.567-41.454L-838.64,754.584z"/>
	</g>
	<g>
		<path fill="#434343" d="M-899.533,727.24c10.435,5.844,21.122,11.175,32.033,15.981l520.947-277.939
			c2.084-11.74,3.615-23.59,4.573-35.512L-899.533,727.24z"/>
	</g>
	<g>
		<path fill="#434343" d="M-414.481,623.472c12.371-16.713,23.229-34.379,32.595-52.741l-378.341,201.854
			c20.468,2.446,41.169,3.274,61.941,2.305L-414.481,623.472z"/>
	</g>
	<g>
		<path fill="#434343" d="M-792.908,32.708c-33.983,7.132-67.558,19.037-99.74,36.207c-32.174,17.166-60.749,38.42-85.604,62.68
			L-792.908,32.708z"/>
	</g>
	<g>
		<path fill="#434343" d="M-949.301,693.963c8.202,6.502,16.637,12.669,25.291,18.433l583.311-311.213
			c0.05-10.407-0.393-20.838-1.227-31.271L-949.301,693.963z"/>
	</g>
	<g>
		<path fill="#434343" d="M-1047.087,576.644c2.576,4.828,5.294,9.535,8.039,14.21l661.452-352.902
			c-2.336-4.894-4.742-9.768-7.318-14.596c-1.394-2.612-2.901-5.117-4.35-7.683l-661.782,353.079
			C-1049.722,571.384-1048.48,574.031-1047.087,576.644z"/>
	</g>
	<g>
		<path fill="#434343" d="M-1079.726,307.683L-590.15,46.481c-8.88-3.163-17.899-5.902-27-8.388l-454.5,242.488
			C-1074.645,289.52-1077.4,298.542-1079.726,307.683z"/>
	</g>
	<g>
		<path fill="#434343" d="M-1091.113,410.634c0.229,8.099,0.647,16.211,1.406,24.323l610.839-325.899
			c-6.323-5.144-12.821-10.013-19.43-14.707L-1091.113,410.634z"/>
	</g>
	<g>
		<path fill="#434343" d="M-990.384,656.049c6.504,6.964,13.237,13.627,20.189,20.014l625.051-333.482
			c-1.451-9.321-3.219-18.634-5.397-27.905L-990.384,656.049z"/>
	</g>
	<g>
		<path fill="#434343" d="M-1087.713,348.989c-1.164,8.402-2.043,16.851-2.628,25.333l561.468-299.559
			c-7.378-4.233-14.885-8.208-22.504-11.924L-1087.713,348.989z"/>
	</g>
	<g>
		<path fill="#434343" d="M-637.514,766.945c33.445-7.171,66.47-18.952,98.153-35.856c31.685-16.904,59.876-37.783,84.448-61.566
			L-637.514,766.945z"/>
	</g>
	<g>
		<path fill="#434343" d="M-1033.834,200.574c-6.296,10.054-12.089,20.37-17.388,30.926l381.929-203.769
			c-11.71-1.481-23.513-2.41-35.362-2.783L-1033.834,200.574z"/>
	</g>
	<g>
		<path fill="#434343" d="M-1024.062,614.186c5.059,7.294,10.338,14.362,15.835,21.192l650.459-347.038
			c-2.621-8.365-5.542-16.691-8.784-24.954L-1024.062,614.186z"/>
	</g>
	<g>
		<path fill="#434343" d="M-1071.569,519.87c2.586,7.653,5.371,15.273,8.487,22.831l658.881-351.531
			c-4.541-6.798-9.319-13.355-14.229-19.769L-1071.569,519.87z"/>
	</g>
	<g>
		<path fill="#434343" d="M-1085.221,467.322c1.443,7.85,3.125,15.694,5.085,23.504l642.352-342.713
			c-5.403-5.972-10.974-11.742-16.708-17.302L-1085.221,467.322z"/>
	</g>
</g>
<path fill="#FF6D1E" d="M746.492,225.297c-0.133-0.337-0.3-0.67-0.467-0.971c-1.475-2.879-4.016-5.625-7.465-8.233
	c-30.289-23.127-130.658-37.017-196.588-43.877c47.156-11.08,91.336-27.545,131.394-48.427C603.017,53.507,505.894,10,398.596,10
	c-107.263,0-204.418,43.507-274.736,113.79c-5.557,5.521-10.91,11.243-16.063,17.1c-0.032,0-0.065,0.036-0.065,0.068
	c-2.412,2.677-4.72,5.354-6.962,8.099c-0.068,0.065-0.102,0.101-0.133,0.167c-66.066,101.374,223.896,135.679,297.96,135.679
	c0,0-358.104,0-388.591,113.689H10c0,62.281,14.66,121.118,40.731,173.293c0.132,0.336,0.301,0.67,0.466,0.97
	c1.475,2.879,4.019,5.626,7.465,8.232c30.288,23.128,130.658,37.019,196.588,43.879c-47.156,11.079-91.334,27.545-131.393,48.426
	c70.349,70.282,167.472,113.792,274.771,113.792c107.263,0,204.416-43.51,274.734-113.792c5.557-5.52,10.91-11.242,16.064-17.1
	c0.033,0,0.064-0.036,0.064-0.068c2.412-2.677,4.721-5.354,6.962-8.1c0.069-0.065,0.102-0.102,0.134-0.167
	c66.066-101.374-223.896-135.678-297.959-135.678c0,0,358.104,0,388.591-113.688h0.003
	C787.223,336.309,772.564,277.473,746.492,225.297z M107.74,190.789c-3.511-6.478-6.909-16.991,3.742-33.684
	c1.776-2.165,3.625-4.319,5.625-6.553c3.709-2.985,8.19-4.438,13.674-4.438c1.132,0,2.314,0.064,3.511,0.191
	c0.136,0.015,0.206,0.021,0.347,0.031l0.32,0.048c0.17,0.026,0.336,0.049,0.503,0.068c1.229,0.147,2.517,0.384,3.817,0.696
	c0.758,0.189,1.49,0.375,2.275,0.604c0.552,0.155,1.059,0.338,1.497,0.492c0.183,0.063,0.361,0.122,0.542,0.177l-0.1-0.028
	l0.737,0.258c0.239,0.078,0.444,0.163,0.626,0.234l0.2,0.077l0.092,0.038c0.072,0.034,0.137,0.069,0.21,0.103
	c0.315,0.157,0.641,0.3,0.967,0.433c76.445,34.368,163.665,52.534,252.27,52.534c49.077,0,97.578-5.486,144.205-16.306
	c96.887,10.194,164.47,24.731,186.394,40.063c0.64,0.889,0.954,1.525,1.071,1.866c-1.302,2.513-16.492,23.105-167.175,35.837
	c-82.422,6.963-163.836,7.976-164.495,7.984C324.695,271.515,136.605,244.049,107.74,190.789z M398.707,525.668
	c73.958,0.02,261.922,27.483,290.775,80.725c3.511,6.479,6.91,16.99-3.741,33.685c-1.777,2.164-3.625,4.318-5.624,6.552
	c-3.711,2.986-8.192,4.439-13.676,4.439c-1.131,0-2.313-0.064-3.511-0.192c-0.136-0.015-0.205-0.021-0.345-0.029l-0.321-0.049
	c-0.171-0.025-0.337-0.048-0.503-0.068c-1.229-0.146-2.518-0.385-3.818-0.696c-0.758-0.189-1.489-0.377-2.275-0.605
	c-0.552-0.154-1.059-0.337-1.497-0.491c-0.182-0.062-0.362-0.12-0.542-0.176l0.1,0.027l-0.736-0.259
	c-0.238-0.078-0.444-0.163-0.627-0.233l-0.199-0.077l-0.093-0.037c-0.072-0.033-0.137-0.068-0.208-0.103
	c-0.318-0.158-0.641-0.3-0.967-0.434c-76.447-34.367-163.665-52.532-252.27-52.532c-49.078,0-97.58,5.484-144.205,16.305
	c-96.889-10.193-164.471-24.731-186.396-40.063c-0.64-0.891-0.953-1.527-1.071-1.867c1.302-2.513,16.493-23.104,167.176-35.838
	C315.462,526.779,395.813,525.702,398.707,525.668z"/>
</svg>
